<mxfile host="65bd71144e">
    <diagram name="Page-1" id="nAeKRZr2LrRtyZ-Q1KEj">
        <mxGraphModel dx="1532" dy="1139" grid="1" gridSize="10" guides="1" tooltips="1" connect="1" arrows="1" fold="1" page="1" pageScale="1" pageWidth="850" pageHeight="1100" math="0" shadow="0">
            <root>
                <mxCell id="0"/>
                <mxCell id="1" parent="0"/>
                <mxCell id="2" value="dept" style="whiteSpace=wrap;strokeWidth=2;fillColor=#f8cecc;strokeColor=#b85450;" parent="1" vertex="1">
                    <mxGeometry x="170" y="450" width="93" height="54" as="geometry"/>
                </mxCell>
                <mxCell id="I-n6URUkujwbE3Ho_qyX-23" style="edgeStyle=orthogonalEdgeStyle;rounded=0;orthogonalLoop=1;jettySize=auto;html=1;exitX=0.5;exitY=0;exitDx=0;exitDy=0;entryX=1;entryY=0.5;entryDx=0;entryDy=0;" parent="1" source="3" target="8" edge="1">
                    <mxGeometry relative="1" as="geometry"/>
                </mxCell>
                <mxCell id="3" value="mct" style="whiteSpace=wrap;strokeWidth=2;" parent="1" vertex="1">
                    <mxGeometry x="432" y="730" width="88" height="54" as="geometry"/>
                </mxCell>
                <mxCell id="I-n6URUkujwbE3Ho_qyX-21" style="edgeStyle=orthogonalEdgeStyle;rounded=0;orthogonalLoop=1;jettySize=auto;html=1;exitX=0.5;exitY=0;exitDx=0;exitDy=0;entryX=0;entryY=0.5;entryDx=0;entryDy=0;" parent="1" source="4" target="8" edge="1">
                    <mxGeometry relative="1" as="geometry"/>
                </mxCell>
                <mxCell id="4" value="ref table" style="whiteSpace=wrap;strokeWidth=2;" parent="1" vertex="1">
                    <mxGeometry x="180" y="730" width="73" height="54" as="geometry"/>
                </mxCell>
                <mxCell id="5" value="sem" style="whiteSpace=wrap;strokeWidth=2;" parent="1" vertex="1">
                    <mxGeometry x="440" y="450" width="88" height="54" as="geometry"/>
                </mxCell>
                <mxCell id="6" value="set" style="whiteSpace=wrap;strokeWidth=2;" parent="1" vertex="1">
                    <mxGeometry x="690" y="560" width="82" height="54" as="geometry"/>
                </mxCell>
                <mxCell id="7" value="staff&#xa;no idea how will be used" style="whiteSpace=wrap;strokeWidth=2;" parent="1" vertex="1">
                    <mxGeometry x="684.5" y="340" width="93" height="54" as="geometry"/>
                </mxCell>
                <mxCell id="I-n6URUkujwbE3Ho_qyX-24" style="edgeStyle=orthogonalEdgeStyle;rounded=0;orthogonalLoop=1;jettySize=auto;html=1;exitX=0.5;exitY=0;exitDx=0;exitDy=0;entryX=0.5;entryY=1;entryDx=0;entryDy=0;" parent="1" source="8" target="2" edge="1">
                    <mxGeometry relative="1" as="geometry"/>
                </mxCell>
                <mxCell id="I-n6URUkujwbE3Ho_qyX-25" style="edgeStyle=orthogonalEdgeStyle;rounded=0;orthogonalLoop=1;jettySize=auto;html=1;exitX=0.5;exitY=0;exitDx=0;exitDy=0;entryX=0.5;entryY=1;entryDx=0;entryDy=0;" parent="1" source="8" target="5" edge="1">
                    <mxGeometry relative="1" as="geometry"/>
                </mxCell>
                <mxCell id="8" value="sub table" style="whiteSpace=wrap;strokeWidth=2;" parent="1" vertex="1">
                    <mxGeometry x="316" y="590" width="73" height="54" as="geometry"/>
                </mxCell>
                <mxCell id="9" value="td" style="whiteSpace=wrap;strokeWidth=2;" parent="1" vertex="1">
                    <mxGeometry x="693.5" y="460" width="75" height="54" as="geometry"/>
                </mxCell>
                <mxCell id="I-n6URUkujwbE3Ho_qyX-22" style="edgeStyle=orthogonalEdgeStyle;rounded=0;orthogonalLoop=1;jettySize=auto;html=1;exitX=0.5;exitY=0;exitDx=0;exitDy=0;entryX=0.5;entryY=1;entryDx=0;entryDy=0;" parent="1" source="10" target="8" edge="1">
                    <mxGeometry relative="1" as="geometry"/>
                </mxCell>
                <mxCell id="10" value="teachingÂ &#xa;plan" style="whiteSpace=wrap;strokeWidth=2;" parent="1" vertex="1">
                    <mxGeometry x="315" y="730" width="75" height="54" as="geometry"/>
                </mxCell>
                <mxCell id="11" value="teacherlogic&#xa;updatelogic&#xa;&#xa;teachingplan&#xa;teachingplanlogic" style="whiteSpace=wrap;strokeWidth=2;" vertex="1" parent="1">
                    <mxGeometry x="560" y="690" width="260" height="300" as="geometry"/>
                </mxCell>
            </root>
        </mxGraphModel>
    </diagram>
</mxfile>